<svg
  width="651"
  height="721"
  xmlns="http://www.w3.org/2000/svg"
  xmlns:xlink="http://www.w3.org/1999/xlink"
  xml:space="preserve"
  overflow="hidden"
>
  <defs>
    <clipPath id="clip0">
      <rect x="1877" y="879" width="651" height="721" />
    </clipPath>
  </defs>
  <g clip-path="url(#clip0)" transform="translate(-1877 -879)">
    <path
      d="M2246.83 1597.45C2231.94 1601.59 2197.3 1602.06 2177.69 1588.22 2158.08 1574.39 2141.45 1562.02 2129.17 1514.43 2116.88 1466.85 2104.84 1374.16 2104 1302.72 2103.84 1288.76 2113.25 1285.68 2126.79 1294.8 2196.81 1341.97 2274.99 1368.51 2356.96 1385 2371.83 1388 2387.65 1388.36 2402.78 1387.06 2409.15 1386.51 2420.53 1381.38 2419.88 1373.58 2419.22 1365.78 2413.98 1352.38 2398.85 1340.27 2389.25 1332.59 2385.7 1315.24 2389.6 1306.4 2393.5 1297.57 2408.27 1285.05 2422.26 1287.26 2438.7 1289.84 2452.9 1290.34 2470.06 1303.25 2487.22 1316.17 2511.84 1333.95 2525.21 1364.73 2529.97 1383.79 2528.14 1404.74 2523.47 1413.31 2504.06 1442.87 2481.98 1460.4 2421.37 1450.42 2360.76 1440.43 2241.61 1400.33 2159.84 1353.39 2153.73 1349.89 2145.63 1349.86 2138.45 1348.22 2138.17 1355.68 2136.21 1363.56 2137.96 1370.51 2142.26 1387.65 2146.3 1405.33 2154.05 1421.02 2164.84 1442.84 2177.32 1464.26 2192.1 1483.53 2202.83 1497.53 2215.33 1493.38 2221.15 1476.56 2224.14 1467.94 2225.98 1458.91 2229.27 1450.42 2237.69 1428.7 2252.98 1422.46 2272.5 1435.19 2282.4 1441.64 2292.4 1451.95 2296.39 1462.72 2311.22 1502.78 2283.69 1574.4 2246.83 1597.45Z"
      fill="#F9F9F9"
      fill-rule="evenodd"
    />
    <path
      d="M1886.58 1138.51C1874.64 1117.53 1873.78 1097.9 1884.45 1079.8 1898.74 1055.55 1925.29 1036.56 1961.35 1037.01 1992.37 1037.4 2024.94 1041.53 2053.48 1052.58 2103.95 1072.13 2152.07 1097.84 2200.73 1121.89 2216.26 1129.56 2215.54 1139.35 2199.83 1147.14 2122.08 1185.69 2058.47 1241.78 2002.31 1306.92 1993.86 1316.71 1986.7 1328.3 1981.87 1340.25 1979.38 1346.39 1980.82 1357.61 1985.11 1361.97 1989 1365.93 1999.26 1364.62 2006.55 1363.93 2013.82 1363.24 2020.79 1359.42 2028.06 1358.71 2058.26 1355.77 2073.12 1376.65 2060.48 1404.5 2057.25 1411.61 2052.48 1418.82 2046.56 1423.76 2015.22 1449.9 1978.81 1462.33 1938.25 1456.65 1897.75 1450.97 1873.87 1407.92 1890.5 1369.26 1898.68 1350.23 1911.02 1331.88 1925.23 1316.76 1987.8 1250.23 2099.01 1175.02 2135.95 1144.89 2151.38 1132.31 2148.08 1126.94 2133.14 1120.32 2118.2 1113.7 2068.06 1107.25 2046.29 1105.17 2024.52 1103.09 2011.63 1103.51 2002.52 1107.84 1993.42 1112.18 1989.51 1122.47 1991.66 1131.2 1993.82 1139.93 2012.51 1148.53 2015.45 1160.23 2018.39 1171.94 2025.34 1189.78 2009.29 1201.44 1992.58 1213.56 1974.49 1215.86 1956.07 1205.68 1926.93 1189.6 1903.47 1167.49 1886.58 1138.51Z"
      fill="#F9F9F9"
      fill-rule="evenodd"
    />
    <path
      d="M2217.21 881.462C2237.73 888.438 2259.72 906.664 2276.24 946.429 2292.75 986.194 2305.8 1061.65 2316.31 1120.05 2322.96 1156.95 2321.84 1195.23 2324.74 1232.85 2325.13 1237.9 2327.48 1244.2 2331.14 1247.07 2333.4 1248.83 2341.27 1246.62 2344.27 1243.74 2373.31 1215.91 2400.51 1186.52 2416.97 1149 2419.25 1143.78 2421.38 1138.35 2422.52 1132.8 2425.88 1116.45 2418.07 1108.53 2401.72 1111.62 2391.05 1113.63 2380.61 1117.19 2369.89 1118.45 2352.38 1120.51 2343.13 1112.87 2339.81 1095.47 2335.87 1074.76 2343.91 1055.55 2362.57 1043.94 2388.84 1027.59 2417.71 1018.57 2448.62 1017.46 2493.92 1015.84 2524.98 1051.76 2518.03 1096.72 2512.61 1131.75 2493.55 1159.35 2469.71 1183.92 2423.36 1231.68 2367.21 1266.21 2310.41 1299.68 2297.58 1307.24 2289.43 1301.55 2290.62 1286.2 2297.4 1198.3 2279.69 1114.18 2251.07 1031.9 2246.68 1019.28 2238.92 1007.31 2230.48 996.855 2226.85 992.365 2216.75 989.822 2210.96 991.406 2206.29 992.682 2202.74 1001.11 2200.38 1007.04 2196.83 1015.98 2196.08 1026.17 2191.8 1034.65 2181.32 1055.38 2159.68 1058.8 2143.97 1041.53 2136.62 1033.45 2130.18 1022.43 2128.32 1011.86 2121.51 972.998 2129.66 936.431 2153.12 904.573 2168.85 882.382 2196.69 874.486 2217.21 881.462Z"
      fill="#FAF9FA"
      fill-rule="evenodd"
    />
    <path
      d="M2250.93 1251.07C2240.72 1278.8 2220.92 1291.63 2197.11 1287.11 2174.79 1282.88 2159.01 1263.02 2160.05 1240.47 2161.23 1214.95 2182.21 1195.9 2207.86 1197.05 2235.02 1198.27 2252.21 1219.14 2250.93 1251.07Z"
      fill="#F8F8F8"
      fill-rule="evenodd"
    />
  </g>
</svg>
